<svg version="1.1" id="Layer_1" xmlns="http://www.w3.org/2000/svg" xmlns:xlink="http://www.w3.org/1999/xlink" x="0px" y="0px"
	 width="20.001px" height="19.542px" viewBox="0 0 20.001 19.542" style="enable-background:new 0 0 20.001 19.542;"
	 xml:space="preserve" fill="currentColor">
<g id="Iconly_Light-Outline_Buy" transform="translate(387.609 793.23)">
	<g id="Buy" transform="translate(2 3)">
		<path id="Combined-Shape" d="M-384.456-779.277c0.716,0,1.296,0.579,1.297,1.295c0,0.715-0.579,1.295-1.295,1.295
			c-0.715,0.001-1.295-0.578-1.296-1.293c0-0.001,0-0.002,0-0.002C-385.746-778.696-385.169-779.273-384.456-779.277z
			 M-373.175-779.277c0.715,0,1.296,0.579,1.296,1.295c0.001,0.715-0.578,1.295-1.294,1.295c-0.715,0.001-1.295-0.578-1.296-1.293
			c0-0.001,0-0.002,0-0.002C-374.466-778.697-373.888-779.274-373.175-779.277L-373.175-779.277z M-388.73-796.22l2.08,0.36
			c0.336,0.059,0.59,0.337,0.619,0.677l0.234,2.8h14.392c1.144,0.163,1.938,1.223,1.775,2.366c0,0.001-0.001,0.002-0.001,0.003
			l-0.949,6.583c-0.186,1.25-1.255,2.178-2.519,2.186h-10.925c-1.325-0.007-2.426-1.023-2.539-2.343l-0.916-10.894l-1.507-0.26
			c-0.409-0.07-0.684-0.459-0.613-0.868C-389.523-796.015-389.137-796.286-388.73-796.22z M-385.124-790.881h-0.547l0.601,7.172
			c0.04,0.547,0.497,0.97,1.046,0.966h10.92c0.521-0.001,0.963-0.384,1.04-0.899l0.95-6.56c0.022-0.155-0.019-0.313-0.112-0.438
			c-0.093-0.126-0.232-0.209-0.388-0.231h-13.51V-790.881z M-374.711-788.681c0.414,0,0.75,0.336,0.75,0.75
			c0,0.415-0.336,0.75-0.75,0.75l0,0h-2.771c-0.414,0-0.75-0.335-0.75-0.75c0-0.414,0.336-0.75,0.75-0.75H-374.711z"/>
	</g>
</g>
</svg>
