<svg version="1.1" id="Layer_1" xmlns="http://www.w3.org/2000/svg" xmlns:xlink="http://www.w3.org/1999/xlink" x="0px" y="0px"
	 width="17.948px" height="18px" viewBox="0 0 17.948 18" style="enable-background:new 0 0 17.948 18;" xml:space="preserve" fill="currentColor">
<g id="Iconly_Light-Outline_Activity" transform="translate(1633.5 65.297)">
	<g id="Activity" transform="translate(2 2)">
		<path id="Combined-Shape" d="M-1624.287-66.565c0.359,0.028,0.627,0.342,0.6,0.701c-0.025,0.32-0.279,0.574-0.6,0.599h-6.319
			c-1.918-0.075-3.534,1.419-3.609,3.337c-0.006,0.163-0.001,0.326,0.015,0.487v7.027c0,2.353,1.375,3.812,3.59,3.812h7.481
			c1.916,0.074,3.53-1.42,3.604-3.336c0.007-0.158,0.002-0.317-0.014-0.476v-6.121c0.028-0.359,0.342-0.627,0.701-0.599
			c0.32,0.025,0.574,0.279,0.6,0.599v6.12c0,3.061-1.968,5.117-4.895,5.117h-7.473c-2.927,0-4.894-2.057-4.894-5.117v-7.026
			c0-3.065,1.967-5.125,4.894-5.125H-1624.287z M-1622.447-60.627c0.284,0.219,0.338,0.628,0.117,0.913c0,0,0,0.001-0.001,0.002
			l-2.547,3.286c-0.22,0.285-0.63,0.337-0.915,0.117c-0.001-0.002-0.002-0.002-0.003-0.004l-2.451-1.924l-2.2,2.86
			c-0.22,0.285-0.629,0.339-0.915,0.119c-0.286-0.219-0.339-0.629-0.12-0.914l0,0l2.6-3.382c0.106-0.139,0.263-0.229,0.436-0.25
			c0.173-0.023,0.348,0.026,0.484,0.135l2.454,1.927l2.146-2.768c0.217-0.285,0.625-0.338,0.909-0.12
			C-1622.451-60.629-1622.449-60.628-1622.447-60.627z M-1619.879-67.297c1.283-0.001,2.325,1.038,2.326,2.321
			c0.002,1.284-1.037,2.326-2.32,2.327s-2.325-1.038-2.327-2.321c0-0.001,0-0.003,0-0.004
			C-1622.199-66.255-1621.16-67.295-1619.879-67.297z M-1619.879-65.997c-0.563,0-1.02,0.457-1.02,1.019
			c0,0.563,0.457,1.019,1.02,1.019c0.561,0,1.017-0.454,1.02-1.015c0.001-0.563-0.454-1.021-1.018-1.023H-1619.879z"/>
	</g>
</g>
</svg>
