<svg version="1.1" id="Layer_1" xmlns="http://www.w3.org/2000/svg" xmlns:xlink="http://www.w3.org/1999/xlink" x="0px" y="0px"
	 width="1122.393px" height="283.232px" viewBox="0 0 1122.393 283.232" style="enable-background:new 0 0 1122.393 283.232;"
	 xml:space="preserve">
<path id="Path_23_3_" d="M275.807,129.898H140.86v44.6h81.27c-4.536,32.886-31.752,59.346-76.355,59.346
	c-59.346,0-92.232-42.336-92.232-89.964s34.776-88.073,86.563-88.073c40.824,0,65.394,18.521,78.624,45.737l48.006-13.604
	C250.103,43.714,205.12,7.048,139.727,7.048C61.103,7.048,1,66.395,1,144.263c0,78.245,59.725,137.97,140.994,137.97
	c79.38,0,133.813-51.03,133.813-125.874V129.898z M363.881,114.022V85.672h-49.9V276.94h49.9v-83.16
	c0-51.408,22.3-70.308,63.126-63.882V83.026C397.145,78.868,375.221,91.721,363.881,114.022L363.881,114.022z M531.713,282.232
	c26.838,0,48.006-11.34,61.613-28.729v23.437h50.274V85.672h-50.274v23.059c-13.607-17.389-34.775-28.351-61.613-28.351
	c-52.921,0-94.5,42.714-94.5,100.927C437.213,239.141,478.792,282.232,531.713,282.232z M540.406,237.632
	c-31.374,0-53.676-23.436-53.676-56.699c0-32.887,22.3-55.944,53.676-55.944c30.24,0,54.433,23.058,54.433,55.944
	c0,33.26-24.192,56.695-54.433,56.695V237.632z M804.25,80.38c-27.594,0-48.384,12.475-61.613,29.484V1h-49.9v275.94h49.9v-94.5
	c0-33.643,18.144-55.566,46.116-55.566c27.594,0,40.823,18.522,40.823,47.628V276.94h49.9V165.052
	C879.473,114.022,854.146,80.38,804.25,80.38z M1009.505,282.232c26.838,0,48.006-11.34,61.613-28.729v23.437h50.274V85.672h-50.274
	v23.059c-13.607-17.389-34.775-28.351-61.613-28.351c-52.921,0-94.5,42.714-94.5,100.927
	C915.005,239.141,956.585,282.232,1009.505,282.232z M1018.198,237.632c-31.374,0-53.676-23.436-53.676-56.699
	c0-32.887,22.3-55.944,53.676-55.944c30.24,0,54.433,23.058,54.433,55.944c0,33.26-24.192,56.695-54.433,56.695V237.632z"/>
<linearGradient id="Path_23_2_" gradientUnits="userSpaceOnUse" x1="539.9248" y1="39.667" x2="616.7841" y2="343.412">
	<stop  offset="0" style="stop-color:#EAC666"/>
	<stop  offset="1" style="stop-color:#EAC666;stop-opacity:0"/>
</linearGradient>
<path id="Path_23_1_" style="opacity:0.61;fill:url(#Path_23_2_);enable-background:new    ;" d="M742.637,1v108.864
	c13.229-17.01,34.02-29.484,61.613-29.484c49.896,0,75.223,33.643,75.227,84.672V276.94h-49.9V174.502
	c0-29.105-13.229-47.628-40.823-47.628c-27.973,0-46.116,21.924-46.116,55.566v94.5h-49.9V1H742.637 M139.727,7.048
	c65.394,0,110.376,36.666,127.008,80.893l-48.006,13.604c-13.23-27.216-37.8-45.737-78.624-45.737
	c-51.786,0-86.563,40.445-86.563,88.073s32.887,89.964,92.232,89.964c44.604,0,71.819-26.46,76.355-59.346h-81.27v-44.6h134.946
	v26.46c0,74.844-54.433,125.874-133.813,125.874C60.725,282.232,1,222.508,1,144.263C1,66.395,61.103,7.048,139.727,7.048
	 M1009.505,80.38c26.838,0,48.006,10.962,61.613,28.351V85.672h50.274V276.94h-50.274v-23.437
	c-13.607,17.389-34.775,28.729-61.613,28.729c-52.92,0-94.5-43.092-94.5-100.926C915.005,123.094,956.584,80.38,1009.505,80.38
	 M1018.198,237.632v-0.004c30.24,0,54.433-23.436,54.433-56.695c0-32.887-24.192-55.944-54.433-55.944
	c-31.376,0-53.676,23.058-53.676,55.944C964.522,214.196,986.824,237.632,1018.198,237.632 M531.713,80.38
	c26.838,0,48.006,10.962,61.613,28.351V85.672h50.274V276.94h-50.274v-23.437c-13.607,17.389-34.775,28.729-61.613,28.729
	c-52.921,0-94.5-43.092-94.5-100.926C437.213,123.094,478.792,80.38,531.713,80.38 M540.406,237.632v-0.004
	c30.24,0,54.433-23.436,54.433-56.695c0-32.887-24.192-55.944-54.433-55.944c-31.376,0-53.676,23.058-53.676,55.944
	C486.73,214.196,509.032,237.632,540.406,237.632 M416.125,82.25c3.498,0,7.128,0.254,10.882,0.777v46.872
	c-5.091-0.801-9.89-1.208-14.397-1.208c-31.64,0-48.729,20.092-48.729,65.09v83.16h-49.9V85.672h49.9v28.351
	C373.795,94.525,391.798,82.25,416.125,82.25 M743.637,0h-1h-49.9h-1v1v275.94v1h1h49.9h1v-1v-94.5
	c0-33.147,17.709-54.566,45.116-54.566c25.681,0,39.823,16.56,39.823,46.628V276.94v1h1h49.9h1v-1V165.052
	c-0.002-25.907-6.621-47.387-19.142-62.12C848.053,87.304,828.847,79.38,804.25,79.38c-24.273,0-45.684,9.794-60.613,27.651V1V0
	L743.637,0z M139.727,6.048c-38.303,0-73.657,14.098-99.55,39.696C14.268,71.356,0,106.344,0,144.263
	c0,38.258,14.319,73.431,40.319,99.039c26.144,25.75,62.252,39.931,101.675,39.931c19.637,0,38.055-3.097,54.74-9.204
	c16.322-5.974,30.661-14.7,42.618-25.938c11.969-11.248,21.266-24.742,27.632-40.107c6.517-15.729,9.822-33.098,9.822-51.625v-26.46
	v-1h-1H140.86h-1v1v44.6v1h1h80.113c-5.368,34.88-34.754,57.346-75.199,57.346c-62.683,0-91.232-46.116-91.232-88.964
	c0-49.64,36.784-87.073,85.563-87.073c37.002,0,63.152,15.199,77.725,45.174l0.366,0.753l0.806-0.229l48.006-13.603l1.046-0.296
	l-0.383-1.018c-8.723-23.196-24.488-43.081-45.59-57.505C199.075,14.359,170.598,6.048,139.727,6.048L139.727,6.048z
	 M1009.505,79.38c-26.052,0-50.138,10.28-67.821,28.946c-17.849,18.841-27.679,44.759-27.679,72.981
	c0,28.08,9.829,53.947,27.678,72.838c17.725,18.758,41.811,29.088,67.822,29.088c24.534,0,45.942-9.532,60.613-26.913v20.621v1h1
	h50.274h1v-1V85.672v-1h-1h-50.274h-1v1v20.246C1055.616,88.779,1034.209,79.38,1009.505,79.38L1009.505,79.38z M1017.504,236.628
	c-30.642-0.341-51.981-23.146-51.981-55.695c0-32.351,21.661-54.944,52.676-54.944c30.462,0,53.433,23.621,53.433,54.944
	c0,31.752-22.971,55.695-53.433,55.695H1017.504L1017.504,236.628z M531.713,79.38c-26.052,0-50.138,10.28-67.821,28.946
	c-17.849,18.841-27.679,44.759-27.679,72.981c0,28.08,9.83,53.948,27.678,72.838c17.724,18.758,41.811,29.088,67.822,29.088
	c24.534,0,45.942-9.532,60.613-26.913v20.621v1h1h50.274h1v-1V85.672v-1h-1h-50.274h-1v1v20.246
	C577.824,88.779,556.417,79.38,531.713,79.38L531.713,79.38z M539.712,236.628c-30.642-0.341-51.981-23.146-51.981-55.695
	c0-32.351,21.661-54.944,52.676-54.944c30.462,0,53.433,23.621,53.433,54.944c0,31.752-22.971,55.695-53.433,55.695H539.712
	L539.712,236.628z M416.125,81.25c-22.318,0-40.372,10.208-51.244,28.849V85.672v-1h-1h-49.9h-1v1V276.94v1h1h49.9h1v-1v-83.16
	c0-43.126,15.612-64.09,47.729-64.09c4.406,0,9.198,0.402,14.242,1.196l1.155,0.182v-1.17V83.026v-0.871l-0.862-0.12
	C423.398,81.514,419.69,81.25,416.125,81.25L416.125,81.25z"/>
</svg>
