<?xml version="1.0" encoding="utf-8"?>
<!-- Generator: Adobe Illustrator 16.0.0, SVG Export Plug-In . SVG Version: 6.00 Build 0)  -->
<!DOCTYPE svg PUBLIC "-//W3C//DTD SVG 1.1//EN" "http://www.w3.org/Graphics/SVG/1.1/DTD/svg11.dtd">
<svg version="1.1" id="Layer_1" xmlns="http://www.w3.org/2000/svg" xmlns:xlink="http://www.w3.org/1999/xlink" x="0px" y="0px"
	 width="523.778px" height="277.318px" viewBox="0 0 523.778 277.318" style="enable-background:new 0 0 523.778 277.318;"
	 xml:space="preserve">
<path id="Path_22_1_" d="M173.071,12.276v106.601H52.111V12.276H0.325v264.601h51.786V165.745h120.96v111.132h52.163V12.276H173.071
	z M299.701,58.77c16.633,0,29.861-12.852,29.861-29.483c0-15.876-13.229-28.729-29.861-28.729s-29.861,12.853-29.861,28.729
	C269.839,45.918,283.07,58.77,299.701,58.77z M273.998,276.876h50.273V85.608h-50.273V276.876z M374.167,276.876h49.898V0.936
	h-49.898V276.876z M473.203,276.876h49.9V0.936h-49.9V276.876z"/>
<linearGradient id="SVGID_1_" gradientUnits="userSpaceOnUse" x1="458.4204" y1="-61.8608" x2="71.0202" y2="344.9494">
	<stop  offset="0" style="stop-color:#EAC666"/>
	<stop  offset="1" style="stop-color:#EAC666;stop-opacity:0"/>
</linearGradient>
<path style="fill:url(#SVGID_1_);" d="M523.778,277.318h-50.9V0.378h50.9V277.318z M473.877,276.318h48.9V1.378h-48.9V276.318z
	 M424.741,277.318h-50.898V0.378h50.898V277.318z M374.842,276.318h48.898V1.378h-48.898V276.318z M324.946,277.318h-51.273V85.05
	h51.273V277.318z M274.672,276.318h49.273V86.05h-49.273V276.318z M225.909,277.318h-53.163V166.187H52.786v111.131H0v-265.6h52.786
	v106.601h119.96V11.718h53.163V277.318z M173.746,276.318h51.163v-263.6h-51.163v106.601H51.786V12.718H1v263.6h50.786V165.187
	h121.96V276.318z M299.875,59.212c-17.025,0-30.361-13.17-30.361-29.983C269.514,13.112,283.134,0,299.875,0
	s30.361,13.112,30.361,29.229C330.237,46.042,316.901,59.212,299.875,59.212z M299.875,1c-16.189,0-29.361,12.663-29.361,28.229
	c0,16.252,12.897,28.983,29.361,28.983s29.361-12.731,29.361-28.983C329.237,13.663,316.065,1,299.875,1z"/>
</svg>
